<?xml version="1.0" standalone="no"?>
<!DOCTYPE svg PUBLIC "-//W3C//DTD SVG 20010904//EN"
 "http://www.w3.org/TR/2001/REC-SVG-20010904/DTD/svg10.dtd">
<svg version="1.0" xmlns="http://www.w3.org/2000/svg"
 width="512.000000pt" height="512.000000pt" viewBox="0 0 512.000000 512.000000"
 preserveAspectRatio="xMidYMid meet">
<metadata>
Created by potrace 1.14, written by Peter Selinger 2001-2017
</metadata>
<g transform="translate(0.000000,512.000000) scale(0.100000,-0.100000)"
fill="#000000" stroke="none">
<path d="M0 2560 l0 -2560 2560 0 2560 0 0 2560 0 2560 -2560 0 -2560 0 0
-2560z m2050 1550 l0 -160 -255 0 -255 0 -2 -632 -3 -633 -207 -3 -208 -2 0
635 0 635 -260 0 -260 0 0 160 0 160 725 0 725 0 0 -160z m620 153 c0 -5 59
-280 130 -612 72 -333 130 -607 131 -610 0 -5 196 847 265 1157 l16 72 191 -2
192 -3 140 -602 c77 -332 142 -603 145 -603 3 0 57 242 119 538 62 295 120
567 128 605 l15 67 214 0 214 0 -5 -22 c-3 -13 -106 -369 -229 -793 l-222
-770 -227 -3 -227 -2 -5 22 c-3 13 -45 187 -94 388 -49 201 -104 445 -122 543
-18 97 -35 177 -39 177 -3 0 -18 -73 -34 -162 -25 -145 -209 -938 -222 -960
-3 -4 -108 -8 -234 -8 l-228 0 -16 48 c-8 26 -104 355 -212 732 -108 377 -205
713 -214 748 l-19 62 225 0 c123 0 224 -3 224 -7z m-310 -2038 l0 -165 -410 0
-410 0 0 -165 0 -165 325 0 325 0 0 -160 0 -160 -325 0 -325 0 0 -305 0 -305
-210 0 -210 0 0 795 0 795 620 0 620 0 0 -165z m742 -367 c3 -480 5 -537 21
-578 31 -80 62 -116 124 -146 50 -25 70 -29 143 -29 105 0 165 21 214 75 79
87 86 148 86 753 l0 457 205 0 205 0 0 -522 c0 -317 -4 -549 -11 -588 -31
-197 -133 -346 -288 -425 -215 -108 -590 -110 -810 -3 -85 42 -196 150 -234
231 -16 32 -38 93 -49 135 -21 73 -22 102 -26 610 -2 294 -1 540 2 548 4 11
44 14 210 14 l205 0 3 -532z"/>
</g>
</svg>
